{"accessors":[{"bufferView":0,"componentType":5126,"count":56,"max":[0.9999920129776001,0.9999923706054688,0.9999752044677734,0.0,0.586633563041687,0.9999750852584839,0.9999998807907104,0.0,0.9999990463256836,0.9999990463256836,0.9992750883102417,0.0,0.5027090311050415,0.3870379328727722,0.9999985694885254,1.0],"min":[-0.9999918937683105,-0.5476524233818054,-0.9995434284210205,0.0,-0.5866339802742004,-0.9987739324569702,-0.8479962944984436,0.0,-1.0,-0.9999991655349731,-0.9992750287055969,0.0,-0.5027089715003967,-0.7056330442428589,-0.784332275390625,1.0],"normalized":false,"type":"MAT4"},{"bufferView":1,"componentType":5126,"count":5964,"max":[50.0,10.0,50.0],"min":[-50.0,-1.0,-50.0],"normalized":false,"type":"VEC3"},{"bufferView":2,"componentType":5126,"count":5964,"max":[1.0,1.0,1.0,1.0],"min":[-1.0,-1.0,-1.0,-1.0],"normalized":false,"type":"VEC4"},{"bufferView":3,"componentType":5126,"count":5964,"max":[1.0,1.0,1.0],"min":[-1.0,-1.0,-1.0],"normalized":false,"type":"VEC3"},{"bufferView":4,"componentType":5126,"count":5964,"max":[1.0,1.0],"min":[0.0,0.0],"normalized":false,"type":"VEC2"},{"bufferView":5,"componentType":5123,"count":5964,"max":[5963],"min":[0],"normalized":false,"type":"SCALAR"},{"bufferView":6,"componentType":5126,"count":1226,"max":[0.16400012373924255,0.9476573467254639,0.5836039185523987],"min":[-0.11399994045495987,-0.9969321489334106,-0.5836035013198853],"normalized":false,"type":"VEC3"},{"bufferView":7,"componentType":5126,"count":1226,"max":[0.9997062087059021,0.9997168183326721,0.999838650226593,1.0],"min":[-0.9998632669448853,-0.9981982707977295,-0.999843418598175,-1.0],"normalized":false,"type":"VEC4"},{"bufferView":8,"componentType":5126,"count":1226,"max":[0.9999638795852661,0.9999710321426392,0.9998761415481567],"min":[-0.9996418952941895,-0.9999973177909851,-0.9998747706413269],"normalized":false,"type":"VEC3"},{"bufferView":9,"componentType":5126,"count":1226,"max":[0.9823195934295654,0.9939571022987366],"min":[0.0060428897850215435,0.006042897701263428],"normalized":false,"type":"VEC2"},{"bufferView":10,"componentType":5121,"count":1226,"max":[55,55,55,52],"min":[0,0,0,0],"normalized":false,"type":"VEC4"},{"bufferView":11,"componentType":5126,"count":1226,"max":[1.0,0.4975585341453552,0.2571415603160858,0.22413136065006256],"min":[0.27274808287620544,0.0,0.0,0.0],"normalized":false,"type":"VEC4"},{"bufferView":12,"componentType":5123,"count":5412,"max":[1225],"min":[0],"normalized":false,"type":"SCALAR"},{"bufferView":13,"componentType":5126,"count":6,"max":[2.5,3.900001049041748,-5.5],"min":[2.499999761581421,0.0,-5.500000476837158],"normalized":false,"type":"VEC3"},{"bufferView":14,"componentType":5126,"count":6,"max":[0.013307154178619385,0.9998365640640259,0.006694182753562927,1.0],"min":[-0.9471850395202637,-0.9998890161514282,-0.9514999389648438,-1.0],"normalized":false,"type":"VEC4"},{"bufferView":15,"componentType":5126,"count":6,"max":[0.9514999389648438,2.9712138712056912e-05,0.38472938537597656],"min":[0.32068753242492676,-3.6582350730895996e-05,-0.9471850395202637],"normalized":false,"type":"VEC3"},{"bufferView":16,"componentType":5126,"count":6,"max":[0.8630655407905579,0.6711680889129639],"min":[0.31053635478019714,0.6257266998291016],"normalized":false,"type":"VEC2"},{"bufferView":17,"componentType":5121,"count":6,"max":[5],"min":[0],"normalized":false,"type":"SCALAR"},{"bufferView":18,"componentType":5126,"count":168,"max":[5.900001049041748,10.0,5.500000476837158],"min":[-4.500000476837158,0.20000001788139343,-5.500000476837158],"normalized":false,"type":"VEC3"},{"bufferView":19,"componentType":5126,"count":168,"max":[1.0,0.0015871613286435604,1.0,1.0],"min":[-1.0,-0.0001291036605834961,-1.0,1.0],"normalized":false,"type":"VEC4"},{"bufferView":20,"componentType":5126,"count":168,"max":[0.00011074915528297424,1.0,0.00012202559446450323],"min":[-0.0010529757710173726,0.86604905128479,-0.4999583661556244],"normalized":false,"type":"VEC3"},{"bufferView":21,"componentType":5126,"count":168,"max":[0.8254978060722351,0.9993438720703125],"min":[0.10333409905433655,0.14773784577846527],"normalized":false,"type":"VEC2"},{"bufferView":22,"componentType":5121,"count":387,"max":[167],"min":[0],"normalized":false,"type":"SCALAR"},{"bufferView":23,"componentType":5126,"count":133,"max":[5.90000057220459,10.0,5.500000476837158],"min":[-4.500000953674316,-0.04999971389770508,-5.275001049041748],"normalized":false,"type":"VEC3"},{"bufferView":24,"componentType":5126,"count":133,"max":[1.0,1.0,4.793690095539205e-05,1.0],"min":[-1.0,-1.0,-3.0518509447574615e-05,1.0],"normalized":false,"type":"VEC4"},{"bufferView":25,"componentType":5126,"count":133,"max":[7.314813754710769e-10,0.0,1.0],"min":[-4.793690095539205e-05,-3.0518509447574615e-05,1.0],"normalized":false,"type":"VEC3"},{"bufferView":26,"componentType":5126,"count":133,"max":[0.9826505184173584,0.7303120493888855],"min":[0.14807355403900146,0.06837567687034607],"normalized":false,"type":"VEC2"},{"bufferView":27,"componentType":5121,"count":231,"max":[132],"min":[0],"normalized":false,"type":"SCALAR"},{"bufferView":28,"componentType":5126,"count":185,"max":[5.900001049041748,10.0,5.500000476837158],"min":[2.299999475479126,-0.04999971762299538,-5.500000476837158],"normalized":false,"type":"VEC3"},{"bufferView":29,"componentType":5126,"count":185,"max":[2.79843807220459e-05,1.0,0.00026604533195495605,1.0],"min":[-7.319450378417969e-05,-1.0000001192092896,-1.0,1.0],"normalized":false,"type":"VEC4"},{"bufferView":30,"componentType":5126,"count":185,"max":[1.0,7.325410842895508e-05,0.0004128217988181859],"min":[0.9999999403953552,-6.362795829772949e-05,-6.380677223205566e-05],"normalized":false,"type":"VEC3"},{"bufferView":31,"componentType":5126,"count":185,"max":[0.8630197644233704,0.9993438720703125],"min":[0.03498893603682518,0.005569543223828077],"normalized":false,"type":"VEC2"},{"bufferView":32,"componentType":5121,"count":321,"max":[184],"min":[0],"normalized":false,"type":"SCALAR"},{"bufferView":33,"componentType":5126,"count":124,"max":[5.40000057220459,10.0,5.5],"min":[-4.500000953674316,-0.04999971762299538,-5.5],"normalized":false,"type":"VEC3"},{"bufferView":34,"componentType":5126,"count":124,"max":[0.0001220703125,1.0,1.0,1.0],"min":[2.391735506535042e-05,-1.0000001192092896,-0.9999999403953552,1.0],"normalized":false,"type":"VEC4"},{"bufferView":35,"componentType":5126,"count":124,"max":[-1.0,7.367134094238281e-05,2.7745962142944336e-05],"min":[-1.0,-0.00011929869651794434,-0.00012207032705191523],"normalized":false,"type":"VEC3"},{"bufferView":36,"componentType":5126,"count":124,"max":[0.9080185890197754,0.9993438720703125],"min":[0.0006408789195120335,0.0006408789195120335],"normalized":false,"type":"VEC2"},{"bufferView":37,"componentType":5121,"count":198,"max":[123],"min":[0],"normalized":false,"type":"SCALAR"},{"bufferView":38,"componentType":5126,"count":179,"max":[5.900001525878906,10.0,5.499999523162842],"min":[-4.5,-0.04999971762299538,-5.500000476837158],"normalized":false,"type":"VEC3"},{"bufferView":39,"componentType":5126,"count":179,"max":[1.0,0.9999999403953552,7.439968612743542e-05,1.0],"min":[-1.0,-0.9999999403953552,-0.0003690643934533,1.0],"normalized":false,"type":"VEC4"},{"bufferView":40,"componentType":5126,"count":179,"max":[0.00038316688733175397,0.8660494685173035,-0.00012207032705191523],"min":[-3.0578928999602795e-05,-1.0,-1.0],"normalized":false,"type":"VEC3"},{"bufferView":41,"componentType":5126,"count":179,"max":[0.9820401072502136,0.9993438720703125],"min":[0.2675669491291046,0.07167162746191025],"normalized":false,"type":"VEC2"},{"bufferView":42,"componentType":5121,"count":327,"max":[178],"min":[0],"normalized":false,"type":"SCALAR"},{"bufferView":43,"componentType":5126,"count":152,"max":[5.90000057220459,5.25,5.5],"min":[-4.500000953674316,-0.04999971762299538,-5.5],"normalized":false,"type":"VEC3"},{"bufferView":44,"componentType":5126,"count":152,"max":[1.0,0.00015524029731750488,1.0,1.0],"min":[-1.0,-0.00015375018119812012,-1.0,1.0],"normalized":false,"type":"VEC4"},{"bufferView":45,"componentType":5126,"count":152,"max":[0.00011929869651794434,-1.0,9.344518912257627e-05],"min":[-0.0001634284999454394,-1.0,-0.0001551806926727295],"normalized":false,"type":"VEC3"},{"bufferView":46,"componentType":5126,"count":152,"max":[0.8380102515220642,0.9993438720703125],"min":[0.0006408789195120335,0.14773784577846527],"normalized":false,"type":"VEC2"},{"bufferView":47,"componentType":5121,"count":354,"max":[151],"min":[0],"normalized":false,"type":"SCALAR"}],"asset":{"generator":"Godot Engine v4.6.2.stable.fedora@71f334935c000924d403448e698df4441130df18","version":"2.0"},"bufferViews":[{"buffer":0,"byteLength":3584},{"buffer":0,"byteLength":71568,"byteOffset":3584,"byteStride":12,"target":34962},{"buffer":0,"byteLength":95424,"byteOffset":75152,"byteStride":16,"target":34962},{"buffer":0,"byteLength":71568,"byteOffset":170576,"byteStride":12,"target":34962},{"buffer":0,"byteLength":47712,"byteOffset":242144,"byteStride":8,"target":34962},{"buffer":0,"byteLength":11928,"byteOffset":289856,"target":34963},{"buffer":0,"byteLength":14712,"byteOffset":301784,"byteStride":12,"target":34962},{"buffer":0,"byteLength":19616,"byteOffset":316496,"byteStride":16,"target":34962},{"buffer":0,"byteLength":14712,"byteOffset":336112,"byteStride":12,"target":34962},{"buffer":0,"byteLength":9808,"byteOffset":350824,"byteStride":8,"target":34962},{"buffer":0,"byteLength":4904,"byteOffset":360632,"byteStride":4,"target":34962},{"buffer":0,"byteLength":19616,"byteOffset":365536,"byteStride":16,"target":34962},{"buffer":0,"byteLength":10824,"byteOffset":385152,"target":34963},{"buffer":0,"byteLength":72,"byteOffset":395976,"byteStride":12,"target":34962},{"buffer":0,"byteLength":96,"byteOffset":396048,"byteStride":16,"target":34962},{"buffer":0,"byteLength":72,"byteOffset":396144,"byteStride":12,"target":34962},{"buffer":0,"byteLength":48,"byteOffset":396216,"byteStride":8,"target":34962},{"buffer":0,"byteLength":6,"byteOffset":396264,"target":34963},{"buffer":0,"byteLength":2016,"byteOffset":396272,"byteStride":12,"target":34962},{"buffer":0,"byteLength":2688,"byteOffset":398288,"byteStride":16,"target":34962},{"buffer":0,"byteLength":2016,"byteOffset":400976,"byteStride":12,"target":34962},{"buffer":0,"byteLength":1344,"byteOffset":402992,"byteStride":8,"target":34962},{"buffer":0,"byteLength":387,"byteOffset":404336,"target":34963},{"buffer":0,"byteLength":1596,"byteOffset":404724,"byteStride":12,"target":34962},{"buffer":0,"byteLength":2128,"byteOffset":406320,"byteStride":16,"target":34962},{"buffer":0,"byteLength":1596,"byteOffset":408448,"byteStride":12,"target":34962},{"buffer":0,"byteLength":1064,"byteOffset":410044,"byteStride":8,"target":34962},{"buffer":0,"byteLength":231,"byteOffset":411108,"target":34963},{"buffer":0,"byteLength":2220,"byteOffset":411340,"byteStride":12,"target":34962},{"buffer":0,"byteLength":2960,"byteOffset":413560,"byteStride":16,"target":34962},{"buffer":0,"byteLength":2220,"byteOffset":416520,"byteStride":12,"target":34962},{"buffer":0,"byteLength":1480,"byteOffset":418740,"byteStride":8,"target":34962},{"buffer":0,"byteLength":321,"byteOffset":420220,"target":34963},{"buffer":0,"byteLength":1488,"byteOffset":420544,"byteStride":12,"target":34962},{"buffer":0,"byteLength":1984,"byteOffset":422032,"byteStride":16,"target":34962},{"buffer":0,"byteLength":1488,"byteOffset":424016,"byteStride":12,"target":34962},{"buffer":0,"byteLength":992,"byteOffset":425504,"byteStride":8,"target":34962},{"buffer":0,"byteLength":198,"byteOffset":426496,"target":34963},{"buffer":0,"byteLength":2148,"byteOffset":426696,"byteStride":12,"target":34962},{"buffer":0,"byteLength":2864,"byteOffset":428844,"byteStride":16,"target":34962},{"buffer":0,"byteLength":2148,"byteOffset":431708,"byteStride":12,"target":34962},{"buffer":0,"byteLength":1432,"byteOffset":433856,"byteStride":8,"target":34962},{"buffer":0,"byteLength":327,"byteOffset":435288,"target":34963},{"buffer":0,"byteLength":1824,"byteOffset":435616,"byteStride":12,"target":34962},{"buffer":0,"byteLength":2432,"byteOffset":437440,"byteStride":16,"target":34962},{"buffer":0,"byteLength":1824,"byteOffset":439872,"byteStride":12,"target":34962},{"buffer":0,"byteLength":1216,"byteOffset":441696,"byteStride":8,"target":34962},{"buffer":0,"byteLength":354,"byteOffset":442912,"target":34963}],"buffers":[{"byteLength":443266,"uri":"level_blockout0.bin"}],"extensionsUsed":["GODOT_single_root","KHR_materials_unlit"],"images":[{"uri":"textures%2F.png"},{"uri":"textures%2F.png"}],"materials":[{"pbrMetallicRoughness":{"baseColorFactor":[1.0,1.0,1.0,1.0],"baseColorTexture":{"index":0},"metallicFactor":0.0,"roughnessFactor":1.0}},{"pbrMetallicRoughness":{"baseColorFactor":[1.0,1.0,1.0,1.0],"metallicFactor":0.0,"roughnessFactor":1.0}},{"doubleSided":true,"name":"Material","pbrMetallicRoughness":{"baseColorFactor":[1.0,1.0,1.0,1.0],"baseColorTexture":{"index":1},"metallicFactor":0.0,"roughnessFactor":0.5}},{"doubleSided":true,"extensions":{"KHR_materials_unlit":{}},"name":"LightBrown","pbrMetallicRoughness":{"baseColorFactor":[0.5373396873474121,0.3110141158103943,0.18239635229110718,1.0],"metallicFactor":0.0,"roughnessFactor":1.0}},{"doubleSided":true,"extensions":{"KHR_materials_unlit":{}},"name":"LightBrown2","pbrMetallicRoughness":{"baseColorFactor":[0.2738383710384369,0.11493982374668121,0.06372378766536713,1.0],"metallicFactor":0.0,"roughnessFactor":1.0}},{"doubleSided":true,"extensions":{"KHR_materials_unlit":{}},"name":"Brown","pbrMetallicRoughness":{"baseColorFactor":[0.2632734179496765,0.07284348458051682,0.04563799872994423,1.0],"metallicFactor":0.0,"roughnessFactor":1.0}},{"doubleSided":true,"extensions":{"KHR_materials_unlit":{}},"name":"DarkBrown","pbrMetallicRoughness":{"baseColorFactor":[0.09462962299585342,0.021107947453856468,0.021107947453856468,1.0],"metallicFactor":0.0,"roughnessFactor":1.0}},{"doubleSided":true,"extensions":{"KHR_materials_unlit":{}},"name":"DarkestBrown","pbrMetallicRoughness":{"baseColorFactor":[0.03400535136461258,0.0032325568608939648,0.009330115281045437,1.0],"metallicFactor":0.0,"roughnessFactor":1.0}},{"doubleSided":true,"extensions":{"KHR_materials_unlit":{}},"name":"Black","pbrMetallicRoughness":{"baseColorFactor":[0.0,0.0,0.0,1.0],"metallicFactor":0.0,"roughnessFactor":1.0}}],"meshes":[{"name":"LevelBlockout2","primitives":[{"attributes":{"NORMAL":3,"POSITION":1,"TANGENT":2,"TEXCOORD_0":4},"indices":5,"material":0,"mode":4}]},{"name":"male_base_mesh_Cube_003","primitives":[{"attributes":{"JOINTS_0":10,"NORMAL":8,"POSITION":6,"TANGENT":7,"TEXCOORD_0":9,"WEIGHTS_0":11},"indices":12,"material":1,"mode":4}]},{"name":"house_base_shaded_HouseBase2_003","primitives":[{"attributes":{"NORMAL":15,"POSITION":13,"TANGENT":14,"TEXCOORD_0":16},"indices":17,"material":2,"mode":4},{"attributes":{"NORMAL":20,"POSITION":18,"TANGENT":19,"TEXCOORD_0":21},"indices":22,"material":3,"mode":4},{"attributes":{"NORMAL":25,"POSITION":23,"TANGENT":24,"TEXCOORD_0":26},"indices":27,"material":4,"mode":4},{"attributes":{"NORMAL":30,"POSITION":28,"TANGENT":29,"TEXCOORD_0":31},"indices":32,"material":5,"mode":4},{"attributes":{"NORMAL":35,"POSITION":33,"TANGENT":34,"TEXCOORD_0":36},"indices":37,"material":6,"mode":4},{"attributes":{"NORMAL":40,"POSITION":38,"TANGENT":39,"TEXCOORD_0":41},"indices":42,"material":7,"mode":4},{"attributes":{"NORMAL":45,"POSITION":43,"TANGENT":44,"TEXCOORD_0":46},"indices":47,"material":8,"mode":4}]}],"nodes":[{"children":[1,2,3,4,5,64,65,94,129,130,131],"mesh":0,"name":"LevelBlockout2"},{"name":"CSGBox3D3","translation":[0.0,-0.5,0.0]},{"name":"CSGBox3D2","rotation":[0.0,-0.7071067690849304,0.0,0.7071067690849304],"translation":[16.5,2.0,17.0]},{"name":"CSGBox3D5","rotation":[0.0,-0.7071067690849304,0.0,0.7071067690849304],"translation":[0.0,2.0,-17.0]},{"name":"CSGBox3D6","rotation":[0.0,-0.7071067690849304,0.0,0.7071067690849304],"translation":[10.5,6.0,-5.5]},{"children":[6],"name":"SizeRef","rotation":[0.0,0.13052619993686676,0.0,0.9914448857307434],"translation":[-8.071012496948242,1.1999999284744263,-5.5490875244140625]},{"children":[7,63],"name":"metarig"},{"children":[8,51,52,57,58],"name":"spine","rotation":[0.04293566197156906,0.7058022022247314,-0.042935650795698166,0.7058019042015076],"translation":[0.014799999073147774,-0.08009999990463257,7.860687389893428e-08]},{"children":[9],"name":"spine_001","rotation":[-0.04567519202828407,-2.895525028634438e-07,-4.051452062725502e-09,0.9989563226699829],"translation":[-4.322342483931152e-11,0.14849494397640228,9.312867144117831e-10]},{"children":[10],"name":"spine_002","rotation":[-0.03097037598490715,3.1673206990490144e-07,-3.38603878269339e-09,0.9995203018188477],"translation":[-1.1102230246251565e-15,0.22570239007472992,-2.7939586200176336e-09]},{"children":[11,13,32],"name":"spine_003","rotation":[-0.10605821013450623,-2.437951529543625e-08,-2.879957072821071e-08,0.9943599104881287],"translation":[-4.440892098500626e-15,0.17288747429847717,8.38186320351042e-09]},{"children":[12],"name":"spine_004","rotation":[0.1596672385931015,-2.723421044237284e-09,5.64269058145328e-08,0.9871708750724792],"translation":[1.3322676295501878e-14,0.18808622658252716,-6.23986551318012e-08]},{"name":"spine_005","rotation":[-0.03466137871146202,-9.257597355372127e-09,-2.2370752361666746e-08,0.9993991255760193],"translation":[3.1086244689504383e-15,0.05766824260354042,-8.381944027746613e-09]},{"children":[14],"name":"shoulder_L","rotation":[-0.5417585968971252,-0.29265841841697693,-0.374866783618927,0.6930537819862366],"translation":[0.018299968913197517,0.12212394177913666,0.08640942722558975]},{"children":[15],"name":"upper_arm_L","rotation":[-0.15958818793296814,0.6511620879173279,-0.5134387612342834,0.5356307029724121],"translation":[0.0006316032377071679,0.21114304661750793,-0.020383106544613838]},{"children":[16],"name":"forearm_L","rotation":[0.054842837154865265,0.08732478320598602,0.02195182628929615,0.9944268465042114],"translation":[-4.2084138840436935e-08,0.32801803946495056,3.259629011154175e-08]},{"children":[17,20,23,26,29],"name":"hand_L","rotation":[-0.020821359008550644,-0.01857050694525242,-0.02276376262307167,0.9993515014648438],"translation":[6.193295121192932e-08,0.2399214655160904,1.0244548320770264e-08]},{"children":[18],"name":"f_index_01_L","rotation":[0.14607062935829163,0.725541353225708,-0.1401928961277008,0.6577226519584656],"translation":[0.002072781091555953,0.11397919803857803,0.030717428773641586]},{"children":[19],"name":"f_index_02_L","rotation":[0.07787931710481644,-0.012597577646374702,-0.0006033471436239779,0.996882975101471],"translation":[8.731149137020111e-09,0.04504004120826721,-1.5087425708770752e-07]},{"name":"f_index_03_L","rotation":[0.11408580094575882,-0.028777144849300385,-0.03266394883394241,0.9925166964530945],"translation":[-2.514570951461792e-08,0.028223270550370216,1.6763806343078613e-08]},{"children":[21],"name":"thumb_01_L","rotation":[0.21903377771377563,0.937292218208313,0.24303707480430603,-0.1201687902212143],"translation":[0.02101033180952072,0.03469563275575638,0.024609483778476715]},{"children":[22],"name":"thumb_02_L","rotation":[0.1679677963256836,-0.06244431808590889,-0.048623908311128616,0.9826104044914246],"translation":[8.940696716308594e-08,0.04174458980560303,7.078051567077637e-08]},{"name":"thumb_03_L","rotation":[0.020012851804494858,-0.0019134788308292627,-0.03954043239355087,0.9990156888961792],"translation":[-7.916241884231567e-09,0.0334465429186821,3.748573362827301e-08]},{"children":[24],"name":"f_middle_01_L","rotation":[0.17389081418514252,0.6959883570671082,-0.16995543241500854,0.6756311058998108],"translation":[-0.00035655219107866287,0.11553746461868286,0.007655738387256861]},{"children":[25],"name":"f_middle_02_L","rotation":[0.11891525983810425,-0.045089710503816605,-0.00874102022498846,0.9918415546417236],"translation":[2.0954757928848267e-09,0.049540478736162186,2.4656765162944794e-07]},{"name":"f_middle_03_L","rotation":[0.05865790322422981,-0.029012078419327736,-0.0193976741284132,0.9976679086685181],"translation":[2.3283064365386963e-09,0.03219592571258545,9.96515154838562e-08]},{"children":[27],"name":"f_ring_01_L","rotation":[0.1896609514951706,0.6381383538246155,-0.23286841809749603,0.7089291214942932],"translation":[-0.00018100067973136902,0.11471695452928543,-0.01683398336172104]},{"children":[28],"name":"f_ring_02_L","rotation":[0.0744546428322792,-0.02818959951400757,-0.019635574892163277,0.99663245677948],"translation":[6.402842700481415e-09,0.044816628098487854,-4.345201887190342e-08]},{"name":"f_ring_03_L","rotation":[0.15670675039291382,-0.04947132617235184,-0.03685607761144638,0.9857166409492493],"translation":[-1.8757418729364872e-08,0.031800881028175354,3.5157427191734314e-08]},{"children":[30],"name":"f_pinky_01_L","rotation":[0.20585381984710693,0.5573912858963013,-0.3293277323246002,0.7338136434555054],"translation":[0.00593964196741581,0.11365010589361191,-0.040868159383535385]},{"children":[31],"name":"f_pinky_02_L","rotation":[0.04349013417959213,-0.014033811166882515,-0.01650344207882881,0.9988189339637756],"translation":[5.762558430433273e-09,0.027876131236553192,-9.010545909404755e-08]},{"name":"f_pinky_03_L","rotation":[0.08624398708343506,-0.013142394833266735,-0.01576017215847969,0.996062695980072],"translation":[-2.2817403078079224e-08,0.022592272609472275,-1.7671845853328705e-07]},{"children":[33],"name":"shoulder_R","rotation":[-0.5417589545249939,0.2926585376262665,0.3748667240142822,0.6930534839630127],"translation":[-0.018300030380487442,0.12212393432855606,0.08640943467617035]},{"children":[34],"name":"upper_arm_R","rotation":[-0.15958838164806366,-0.6511622071266174,0.5134385228157043,0.5356306433677673],"translation":[-0.0006315635982900858,0.21114307641983032,-0.02038312703371048]},{"children":[35],"name":"forearm_R","rotation":[0.054842837154865265,-0.08732439577579498,-0.02195172756910324,0.9944268465042114],"translation":[-4.0279701352119446e-08,0.32801777124404907,-5.587935447692871e-09]},{"children":[36,39,42,45,48],"name":"hand_R","rotation":[-0.020821377635002136,0.018570534884929657,0.02276352047920227,0.9993515014648438],"translation":[1.3737007975578308e-08,0.2399216592311859,-1.30385160446167e-08]},{"children":[37],"name":"f_index_01_R","rotation":[0.14607076346874237,-0.7255415916442871,0.14019303023815155,0.6577222943305969],"translation":[-0.0020724984351545572,0.11397935450077057,0.03071741946041584]},{"children":[38],"name":"f_index_02_R","rotation":[0.0778791755437851,0.012597690336406231,0.0006032982491888106,0.9968830347061157],"translation":[-2.1187588572502136e-08,0.0450400672852993,-1.1897645890712738e-07]},{"name":"f_index_03_R","rotation":[0.11408554762601852,0.028777165338397026,0.03266393393278122,0.9925166964530945],"translation":[9.313225746154785e-10,0.028223350644111633,2.200249582529068e-08]},{"children":[40],"name":"thumb_01_R","rotation":[-0.2190338671207428,0.9372923374176025,0.24303655326366425,0.12016867846250534],"translation":[-0.021010421216487885,0.0346955731511116,0.0246095173060894]},{"children":[41],"name":"thumb_02_R","rotation":[0.16796760261058807,0.06244414299726486,0.04862414300441742,0.9826104640960693],"translation":[-9.406358003616333e-08,0.041744597256183624,-9.313225746154785e-09]},{"name":"thumb_03_R","rotation":[0.02001296728849411,0.0019135409966111183,0.03954049572348595,0.9990156888961792],"translation":[-1.096632331609726e-07,0.03344644606113434,3.0617229640483856e-08]},{"children":[43],"name":"f_middle_01_R","rotation":[0.17389078438282013,-0.6959882974624634,0.16995543241500854,0.6756311058998108],"translation":[0.00035651889629662037,0.11553750932216644,0.007655729074031115]},{"children":[44],"name":"f_middle_02_R","rotation":[0.11891518533229828,0.04508954659104347,0.008741072379052639,0.9918416142463684],"translation":[-3.958120942115784e-09,0.049540456384420395,1.862645149230957e-08]},{"name":"f_middle_03_R","rotation":[0.05865797773003578,0.02901206724345684,0.01939764805138111,0.9976679086685181],"translation":[4.6566128730773926e-09,0.03219589591026306,-8.89413058757782e-08]},{"children":[46],"name":"f_ring_01_R","rotation":[0.18966077268123627,-0.6381383538246155,0.23286861181259155,0.7089290618896484],"translation":[0.00018087541684508324,0.11471695452928543,-0.0168339554220438]},{"children":[47],"name":"f_ring_02_R","rotation":[0.07445472478866577,0.02818944677710533,0.019635600969195366,0.99663245677948],"translation":[2.0372681319713593e-08,0.04481668397784233,-5.116453394293785e-08]},{"name":"f_ring_03_R","rotation":[0.1567067950963974,0.04947153106331825,0.03685612231492996,0.9857165813446045],"translation":[-3.808236215263605e-08,0.03180086985230446,-1.6391277313232422e-07]},{"children":[49],"name":"f_pinky_01_R","rotation":[0.20585361123085022,-0.5573914051055908,0.3293278217315674,0.7338135242462158],"translation":[-0.005939556285738945,0.11365021765232086,-0.040868181735277176]},{"children":[50],"name":"f_pinky_02_R","rotation":[0.04348967224359512,0.014033692888915539,0.016503294929862022,0.9988189935684204],"translation":[-3.795139491558075e-08,0.02787616476416588,2.1723099052906036e-07]},{"name":"f_pinky_03_R","rotation":[0.08624634146690369,0.01314234733581543,0.01576070673763752,0.9960624575614929],"translation":[9.313225746154785e-09,0.022592319175601006,1.5570549294352531e-07]},{"name":"pelvis_L","rotation":[-0.13301917910575867,-0.7714640498161316,-0.3227539360523224,0.5319576859474182]},{"children":[53],"name":"thigh_L","rotation":[0.9992462396621704,-0.01263861358165741,0.0004612626216839999,0.03670182079076767],"translation":[0.09800001978874207,0.061981528997421265,-0.0047481469810009]},{"children":[54],"name":"shin_L","rotation":[-0.009286790154874325,-0.0018407569732517004,0.007273476105183363,0.9999287128448486],"translation":[1.522926140751224e-08,0.39538297057151794,-1.6108288036775775e-09]},{"children":[55,56],"name":"foot_L","rotation":[-0.497540146112442,0.011763856746256351,-0.01619063876569271,0.8672100305557251],"translation":[-1.0841176845133305e-08,0.5026153326034546,3.035529516637325e-08]},{"name":"toe_L","rotation":[-1.364499439659994e-06,0.9612478613853455,-0.2756856679916382,-7.257198575416623e-08],"translation":[2.1945112393950694e-09,0.1292438954114914,-6.50288995984738e-08]},{"name":"heel_02_L","rotation":[0.6797071099281311,0.6797018647193909,-0.19494162499904633,0.19493943452835083],"translation":[-0.037999477237463,0.019971301779150963,0.08799009770154953]},{"name":"pelvis_R","rotation":[-0.13301938772201538,0.7714641690254211,0.32275381684303284,0.5319575667381287]},{"children":[59],"name":"thigh_R","rotation":[0.9992462396621704,0.012638540007174015,-0.00046072559780441225,0.036701738834381104],"translation":[-0.09799997508525848,0.06198154017329216,-0.004748223815113306]},{"children":[60],"name":"shin_R","rotation":[-0.009286792017519474,0.00184083532076329,-0.007273547817021608,0.9999287128448486],"translation":[-1.6389094525948167e-09,0.3953830599784851,-1.5106706996448338e-09]},{"children":[61,62],"name":"foot_R","rotation":[-0.4975406527519226,-0.011763885617256165,0.016190581023693085,0.867209792137146],"translation":[-1.8248101696372032e-08,0.5026156306266785,-3.5710399970412254e-08]},{"name":"toe_R","rotation":[1.378089223180723e-06,0.9612480401992798,-0.2756849229335785,3.017513563463581e-07],"translation":[8.792753192210512e-10,0.12924396991729736,-1.9920167915188358e-07]},{"name":"heel_02_R","rotation":[0.6797070503234863,-0.67970210313797,0.1949414312839508,0.1949390321969986],"translation":[0.03799948841333389,0.019971070811152458,0.08799008280038834]},{"mesh":1,"name":"mesh","skin":0},{"name":"CSGCylinder3D","translation":[-7.0,0.5,1.0]},{"children":[66,67,68,69,70,71,72,73,74,75,76,77,78,79,80,81,82,83,84,85,86,87,88,89,90,91,92,93],"name":"HouseBase","translation":[-10.5,0.0,7.5]},{"name":"CSGBox3D32","rotation":[0.0,-0.7071067690849304,0.0,0.7071067690849304],"translation":[-1.1000003814697266,4.0,0.0]},{"name":"CSGBox3D7","rotation":[0.0,-0.7071067690849304,0.0,0.7071067690849304],"translation":[2.3999996185302734,4.050000190734863,0.0]},{"name":"CSGBox3D10","rotation":[0.0,-0.7071067690849304,0.0,0.7071067690849304],"translation":[3.4999990463256836,4.075000286102295,0.0]},{"name":"CSGBox3D11","rotation":[0.0,-0.7071067690849304,0.0,0.7071067690849304],"translation":[3.4499988555908203,0.44999998807907104,4.76837158203125e-07]},{"name":"CSGBox3D12","rotation":[0.0,-0.7071067690849304,0.0,0.7071067690849304],"translation":[3.4999990463256836,0.949999988079071,0.0]},{"name":"CSGBox3D22","rotation":[0.0,-0.7071067690849304,0.0,0.7071067690849304],"translation":[4.675000190734863,0.75,0.0]},{"name":"CSGBox3D24","rotation":[0.0,-0.7071067690849304,0.0,0.7071067690849304],"translation":[4.950000286102295,0.550000011920929,0.0]},{"name":"CSGBox3D25","rotation":[0.0,-0.7071067690849304,0.0,0.7071067690849304],"translation":[5.250000476837158,0.3500000238418579,0.0]},{"name":"CSGBox3D26","rotation":[0.0,-0.7071067690849304,0.0,0.7071067690849304],"translation":[5.650001049041748,0.15000002086162567,0.0]},{"name":"CSGBox3D13","rotation":[0.0,-0.7071067690849304,0.0,0.7071067690849304],"translation":[3.3749990463256836,2.0500001907348633,-5.350000381469727]},{"name":"CSGBox3D17","rotation":[0.0,-0.7071067690849304,0.0,0.7071067690849304],"translation":[4.349999904632568,2.700000286102295,-5.349999904632568]},{"name":"CSGBox3D18","rotation":[0.0,-0.7071067690849304,0.0,0.7071067690849304],"translation":[4.349999904632568,2.700000286102295,-1.5]},{"name":"CSGBox3D20","rotation":[0.0,-0.7071067690849304,0.0,0.7071067690849304],"translation":[4.349999904632568,2.700000286102295,1.5]},{"name":"CSGBox3D21","rotation":[0.0,-0.7071067690849304,0.0,0.7071067690849304],"translation":[4.349999904632568,2.700000286102295,5.34999942779541]},{"name":"CSGBox3D14","rotation":[0.0,-0.7071067690849304,0.0,0.7071067690849304],"translation":[3.3749990463256836,2.0500001907348633,5.350000381469727]},{"name":"CSGBox3D15","rotation":[0.0,-0.7071067690849304,0.0,0.7071067690849304],"translation":[4.349998950958252,2.0500001907348633,-3.424999237060547]},{"name":"CSGBox3D19","rotation":[0.0,-0.7071067690849304,0.0,0.7071067690849304],"translation":[4.349999904632568,1.5,-3.4000000953674316]},{"name":"CSGBox3D23","rotation":[0.0,-0.7071067690849304,0.0,0.7071067690849304],"translation":[4.349999904632568,1.5,3.3999996185302734]},{"name":"CSGBox3D16","rotation":[0.0,-0.7071067690849304,0.0,0.7071067690849304],"translation":[4.349998950958252,2.0500001907348633,3.4250001907348633]},{"name":"CSGBox3D27","rotation":[0.0,-0.7071067690849304,0.0,0.7071067690849304],"translation":[3.3749990463256836,5.300000190734863,-5.350000381469727]},{"name":"CSGBox3D28","rotation":[0.0,-0.7071067690849304,0.0,0.7071067690849304],"translation":[3.3749990463256836,5.300000190734863,5.350000381469727]},{"name":"CSGBox3D29","rotation":[0.0,-0.7071067690849304,0.0,0.7071067690849304],"translation":[4.349998950958252,5.300000190734863,-3.424999237060547]},{"name":"CSGBox3D30","rotation":[0.0,-0.7071067690849304,0.0,0.7071067690849304],"translation":[4.349999904632568,4.75,-3.4000000953674316]},{"name":"CSGBox3D31","rotation":[0.0,-0.7071067690849304,0.0,0.7071067690849304],"translation":[4.349999904632568,4.75,3.3999996185302734]},{"name":"CSGBox3D322","rotation":[0.0,-0.7071067690849304,0.0,0.7071067690849304],"translation":[4.349998950958252,5.300000190734863,3.4250001907348633]},{"name":"CSGBox3D33","rotation":[0.0,-0.7071067690849304,0.0,0.7071067690849304],"translation":[4.349998950958252,5.300000190734863,0.0]},{"name":"CSGBox3D4","rotation":[0.0,-0.7071067690849304,0.0,0.7071067690849304],"translation":[2.1999998092651367,9.0,0.0]},{"name":"Label3D","rotation":[0.0,0.7071067690849304,0.0,0.7071067690849304],"translation":[2.4165096282958984,9.0,0.0]},{"children":[95,96,97,98,102,103,104,105,106,107,109,112,120,121,122,123,124,125,126,127,128],"name":"Shack","translation":[-9.0,0.0,-7.0]},{"name":"CSGBox3D","translation":[-2.0,2.75,0.0]},{"name":"CSGBox3D52","translation":[0.5250005722045898,5.349999904632568,0.0]},{"name":"CSGBox3D62","translation":[0.5250005722045898,4.0,0.0]},{"children":[99,100,101],"name":"CSGCombiner3D","translation":[0.0,0.0,-0.25]},{"name":"CSGBox3D72","translation":[0.47500133514404297,4.0,0.25]},{"name":"CSGBox3D102","translation":[0.47500038146972656,3.999999761581421,0.25]},{"name":"CSGBox3D9","translation":[0.47500038146972656,4.0,0.25]},{"name":"CSGBox3D73","rotation":[-0.6755902171134949,0.0,0.0,0.7372773289680481],"translation":[0.5750005841255188,4.662499904632568,-0.02344551682472229]},{"name":"CSGBox3D8","rotation":[-0.7372773885726929,0.0,0.0,0.6755901575088501],"translation":[0.5750005841255188,3.4124996662139893,-0.02344551682472229]},{"name":"CSGBox3D92","rotation":[-0.5,0.0,0.0,0.8660253882408142],"translation":[0.5750005841255188,4.062499523162842,-0.02344551682472229]},{"name":"CSGBox3D103","rotation":[-0.7660444378852844,0.0,0.0,0.6427875757217407],"translation":[0.6250005960464478,4.212499618530273,-0.02344551682472229]},{"name":"CSGBox3D112","rotation":[-0.8433914184570313,0.0,0.0,0.5372995734214783],"translation":[0.6250005960464478,3.6624996662139893,-0.02344551682472229]},{"children":[108],"name":"CSGCombiner3D2","translation":[0.5250005722045898,1.3250000476837158,0.0]},{"name":"CSGBox3D74"},{"children":[110,111],"name":"CSGCombiner3D4","translation":[0.0,0.0,-0.25]},{"name":"CSGBox3D75","translation":[0.47500133514404297,1.2499998807907104,0.25]},{"name":"CSGBox3D82","translation":[0.4608774185180664,1.249999761581421,0.25]},{"children":[113,114,115,116,117,118,119],"name":"CSGCombiner3D3","translation":[0.5250005722045898,1.3250000476837158,0.0]},{"name":"CSGBox3D93","translation":[-0.049999237060546875,-0.07500016689300537,0.375]},{"name":"CSGBox3D104","translation":[-0.049999237060546875,-0.07500016689300537,0.17500019073486328]},{"name":"CSGBox3D122","rotation":[-0.04361938685178757,0.0,0.0,0.9990482330322266],"translation":[-0.049999237060546875,-0.07500016689300537,-0.07499980926513672]},{"name":"CSGBox3D132","translation":[-0.049999237060546875,-0.07500016689300537,-0.3249998092651367]},{"name":"CSGBox3D113","translation":[-0.13130950927734375,0.02499985694885254,0.0]},{"name":"CSGBox3D142","translation":[-0.13130950927734375,0.6249997615814209,0.0]},{"name":"CSGBox3D152","translation":[-0.13130950927734375,-0.725000262260437,0.0]},{"name":"CSGBox3D34","translation":[1.8499999046325684,1.274999976158142,2.0999999046325684]},{"name":"CSGBox3D42","translation":[1.8499999046325684,1.274999976158142,-2.09999942779541]},{"name":"CSGBox3D123","translation":[0.4499998092651367,2.7750000953674316,-2.1999995708465576]},{"name":"CSGBox3D133","translation":[0.4499998092651367,2.7750000953674316,2.200000524520874]},{"name":"CSGBox3D143","translation":[-4.450000286102295,2.7750000953674316,-2.1999995708465576]},{"name":"CSGBox3D153","translation":[-4.450000286102295,2.7750000953674316,2.200000524520874]},{"name":"CSGBox3D210","translation":[1.25,0.024999991059303284,0.0]},{"name":"CSGMesh3D","rotation":[0.0,0.0,-0.7071067690849304,0.7071067690849304],"translation":[1.25,2.700000047683716,0.0]},{"name":"CSGMesh3D2","rotation":[0.0,0.0,-0.7071067690849304,0.7071067690849304],"translation":[0.5717067718505859,1.350000023841858,-0.4500002861022949]},{"name":"Sprite3D","translation":[-8.0,2.139630079269409,25.5]},{"name":"Sprite3D2","translation":[-8.0,2.139630079269409,23.5]},{"children":[132],"name":"house_base_shaded","translation":[-11.5,0.0,24.0]},{"mesh":2,"name":"HouseBase2_001","translation":[0.0,0.0,0.08794975280761719]}],"samplers":[{"magFilter":9729,"minFilter":9987,"wrapS":10497,"wrapT":10497}],"scene":0,"scenes":[{"nodes":[0]}],"skins":[{"inverseBindMatrices":0,"joints":[7,8,9,10,11,12,13,14,15,16,17,18,19,20,21,22,23,24,25,26,27,28,29,30,31,32,33,34,35,36,37,38,39,40,41,42,43,44,45,46,47,48,49,50,51,52,53,54,55,56,57,58,59,60,61,62],"name":"Skin"}],"textures":[{"sampler":0,"source":0},{"sampler":0,"source":1}]}